<svg width="124" height="1113" viewBox="0 0 124 1113" fill="none" xmlns="http://www.w3.org/2000/svg">
<path d="M0.333004 1033.05H24.0771L24.0771 1082.62H49.7277L49.7277 1045.53H72.7786V1082.62H122L122 1112.25H0.333004L0.333004 1033.05ZM73.4719 1023.37C63.5351 1023.37 54.8116 1021.52 47.3013 1017.82C39.791 1014.01 34.0138 1008.86 29.9698 1002.39C25.9258 995.924 23.9038 988.703 23.9038 980.73C23.9038 973.913 25.2903 967.963 28.0634 962.879C30.8364 957.679 34.476 953.693 38.9822 950.92H25.2903L25.2903 921.283H122V950.92H108.308C112.814 953.809 116.454 957.853 119.227 963.052C122 968.136 123.387 974.086 123.387 980.904C123.387 988.76 121.365 995.924 117.321 1002.39C113.161 1008.86 107.326 1014.01 99.8157 1017.82C92.1899 1021.52 83.4086 1023.37 73.4719 1023.37ZM73.6452 950.92C66.2504 950.92 60.4155 953 56.1404 957.159C51.8653 961.203 49.7277 966.172 49.7277 972.064C49.7277 977.957 51.8653 982.983 56.1404 987.143C60.2999 991.187 66.0771 993.209 73.4719 993.209C80.8666 993.209 86.7593 991.187 91.15 987.143C95.4251 982.983 97.5626 977.957 97.5626 972.064C97.5626 966.172 95.4251 961.203 91.15 957.159C86.8749 953 81.0399 950.92 73.6452 950.92ZM41.4086 870.205C36.0936 866.739 31.9341 862.406 28.93 857.207C25.8103 852.007 24.2504 846.23 24.2504 839.875H55.6204L55.6204 848.021C55.6204 855.416 57.238 860.962 60.4732 864.659C63.5929 868.357 69.139 870.205 77.1115 870.205H122L122 899.842H25.2903L25.2903 870.205H41.4086ZM24.2504 702.309C24.2504 690.293 27.8901 680.761 35.1693 673.712C42.4485 666.549 52.5585 662.967 65.4994 662.967H122V692.431H69.4856C63.2463 692.431 58.4512 694.106 55.1005 697.457C51.6342 700.692 49.901 705.198 49.901 710.975C49.901 716.752 51.6342 721.316 55.1005 724.667C58.4512 727.902 63.2463 729.52 69.4856 729.52H122V758.983H69.4856C63.2463 758.983 58.4512 760.659 55.1005 764.01C51.6342 767.245 49.901 771.751 49.901 777.528C49.901 783.305 51.6342 787.869 55.1005 791.22C58.4512 794.455 63.2463 796.073 69.4856 796.073H122V825.71H25.2903L25.2903 796.073H37.4224C33.3784 793.069 30.2009 789.14 27.8901 784.287C25.4637 779.435 24.2504 773.946 24.2504 767.822C24.2504 760.543 25.8103 754.073 28.93 748.411C32.0496 742.634 36.498 738.128 42.2752 734.893C36.9602 731.542 32.6273 726.978 29.2766 721.201C25.9258 715.424 24.2504 709.126 24.2504 702.309ZM122 496.67V526.307L46.9547 575.875H122V605.512H0.333004L0.333004 575.875L75.7249 526.307H0.333004L0.333004 496.67H122ZM73.4719 481.08C63.5351 481.08 54.8116 479.231 47.3013 475.534C39.791 471.721 34.0138 466.579 29.9698 460.109C25.9258 453.638 23.9038 446.417 23.9038 438.444C23.9038 431.627 25.2903 425.677 28.0634 420.593C30.8364 415.394 34.476 411.407 38.9822 408.634H25.2903L25.2903 378.997H122V408.634H108.308C112.814 411.523 116.454 415.567 119.227 420.766C122 425.85 123.387 431.801 123.387 438.618C123.387 446.475 121.365 453.638 117.321 460.109C113.161 466.579 107.326 471.721 99.8157 475.534C92.1899 479.231 83.4086 481.08 73.4719 481.08ZM73.6452 408.634C66.2504 408.634 60.4155 410.714 56.1404 414.874C51.8653 418.918 49.7277 423.886 49.7277 429.779C49.7277 435.671 51.8653 440.698 56.1404 444.857C60.2999 448.901 66.0771 450.923 73.4719 450.923C80.8666 450.923 86.7593 448.901 91.15 444.857C95.4251 440.698 97.5626 435.671 97.5626 429.779C97.5626 423.886 95.4251 418.918 91.15 414.874C86.8749 410.714 81.0399 408.634 73.6452 408.634ZM96.8694 303.656H122V318.734C122 329.479 119.4 337.856 114.201 343.865C108.886 349.873 100.278 352.877 88.3769 352.877H49.901V364.662H25.2903L25.2903 352.877H1.71952L1.71952 323.24H25.2903L25.2903 303.829H49.901L49.901 323.24H88.7236C91.6121 323.24 93.6919 322.547 94.9629 321.16C96.2339 319.774 96.8694 317.463 96.8694 314.228V303.656ZM25.2903 191.651H122V221.288H108.828C113.103 224.292 116.569 228.394 119.227 233.593C121.769 238.677 123.04 244.339 123.04 250.578C123.04 257.973 121.422 264.501 118.187 270.163C114.836 275.824 110.041 280.215 103.802 283.334C97.5626 286.454 90.2256 288.014 81.791 288.014H25.2903L25.2903 258.55H77.8047C84.2751 258.55 89.3013 256.875 92.8831 253.524C96.465 250.174 98.2559 245.667 98.2559 240.006C98.2559 234.229 96.465 229.665 92.8831 226.314C89.3013 222.963 84.2751 221.288 77.8047 221.288H25.2903L25.2903 191.651ZM41.4086 140.726C36.0936 137.26 31.9341 132.927 28.93 127.728C25.8103 122.528 24.2504 116.751 24.2504 110.396H55.6204L55.6204 118.542C55.6204 125.937 57.238 131.483 60.4732 135.18C63.5929 138.877 69.139 140.726 77.1115 140.726H122L122 170.363H25.2903L25.2903 140.726H41.4086ZM73.4719 102.123C63.5351 102.123 54.8116 100.274 47.3013 96.5769C39.791 92.764 34.0138 87.6223 29.9698 81.1519C25.9258 74.6815 23.9038 67.4601 23.9038 59.4876C23.9038 52.6705 25.2903 46.72 28.0634 41.6361C30.8364 36.4367 34.476 32.4505 38.9822 29.6774H25.2903L25.2903 0.0405884H122V29.6774H108.308C112.814 32.566 116.454 36.61 119.227 41.8095C122 46.8934 123.387 52.8438 123.387 59.6609C123.387 67.5178 121.365 74.6815 117.321 81.1519C113.161 87.6223 107.326 92.764 99.8157 96.5769C92.1899 100.274 83.4086 102.123 73.4719 102.123ZM73.6452 29.6774C66.2504 29.6774 60.4155 31.7572 56.1404 35.9168C51.8653 39.9608 49.7277 44.9291 49.7277 50.8218C49.7277 56.7145 51.8653 61.7407 56.1404 65.9002C60.2999 69.9442 66.0771 71.9662 73.4719 71.9662C80.8666 71.9662 86.7593 69.9442 91.15 65.9002C95.4251 61.7407 97.5626 56.7145 97.5626 50.8218C97.5626 44.9291 95.4251 39.9608 91.15 35.9168C86.8749 31.7572 81.0399 29.6774 73.6452 29.6774Z" fill="#243355" fill-opacity="0.12"/>
</svg>
