<svg width="37" height="36" viewBox="0 0 37 36" fill="none" xmlns="http://www.w3.org/2000/svg">
<path d="M19.3296 31.301H6.52535C5.71019 31.301 5.0498 30.6402 5.0498 29.8254V6.04194C5.0498 5.22689 5.71029 4.56641 6.52535 4.56641H30.309C31.1238 4.56641 31.7844 5.22689 31.7844 6.04194V29.8254C31.7844 30.6403 31.1237 31.301 30.309 31.301H23.4963V20.9479H26.9714L27.4917 16.9131H23.4963V14.3372C23.4963 13.169 23.8207 12.3729 25.4958 12.3729L27.6324 12.372V8.76324C27.2629 8.71406 25.9946 8.60421 24.519 8.60421C21.4386 8.60421 19.3296 10.4845 19.3296 13.9376V16.9131H15.8456V20.9479H19.3296V31.301Z" fill="#243355"/>
</svg>
