<svg width="27" height="28" viewBox="0 0 27 28" fill="none" xmlns="http://www.w3.org/2000/svg">
<path fill-rule="evenodd" clip-rule="evenodd" d="M13.5861 0.566406C9.95572 0.566406 9.5005 0.581794 8.07474 0.646848C6.65194 0.711742 5.68022 0.937732 4.82996 1.2682C3.95095 1.60976 3.20548 2.06683 2.4623 2.80996C1.71917 3.55314 1.2621 4.2986 0.920543 5.17762C0.590075 6.02788 0.364086 6.9996 0.299192 8.42239C0.234138 9.84816 0.21875 10.3034 0.21875 13.9337C0.21875 17.5641 0.234138 18.0193 0.299192 19.445C0.364086 20.8678 0.590075 21.8396 0.920543 22.6898C1.2621 23.5688 1.71917 24.3143 2.4623 25.0575C3.20548 25.8006 3.95095 26.2577 4.82996 26.5993C5.68022 26.9297 6.65194 27.1557 8.07474 27.2206C9.5005 27.2856 9.95572 27.301 13.5861 27.301C17.2164 27.301 17.6716 27.2856 19.0974 27.2206C20.5202 27.1557 21.4919 26.9297 22.3422 26.5993C23.2212 26.2577 23.9666 25.8006 24.7098 25.0575C25.4529 24.3143 25.91 23.5688 26.2516 22.6898C26.582 21.8396 26.808 20.8678 26.8729 19.445C26.938 18.0193 26.9534 17.5641 26.9534 13.9337C26.9534 10.3034 26.938 9.84816 26.8729 8.42239C26.808 6.9996 26.582 6.02788 26.2516 5.17762C25.91 4.2986 25.4529 3.55314 24.7098 2.80996C23.9666 2.06683 23.2212 1.60976 22.3422 1.2682C21.4919 0.937732 20.5202 0.711742 19.0974 0.646848C17.6716 0.581794 17.2164 0.566406 13.5861 0.566406ZM13.5858 2.97559C17.155 2.97559 17.5778 2.98922 18.9873 3.05353C20.2906 3.11296 20.9984 3.33073 21.4694 3.51379C22.0934 3.75628 22.5386 4.04594 23.0064 4.51374C23.4742 4.98147 23.7638 5.42677 24.0063 6.05072C24.1894 6.52175 24.4072 7.22954 24.4666 8.53284C24.5309 9.94236 24.5445 10.3652 24.5445 13.9344C24.5445 17.5036 24.5309 17.9264 24.4666 19.3359C24.4072 20.6392 24.1894 21.347 24.0063 21.818C23.7638 22.442 23.4742 22.8873 23.0064 23.355C22.5386 23.8228 22.0934 24.1125 21.4694 24.355C20.9984 24.538 20.2906 24.7558 18.9873 24.8152C17.578 24.8795 17.1552 24.8932 13.5858 24.8932C10.0163 24.8932 9.59357 24.8795 8.1842 24.8152C6.8809 24.7558 6.17311 24.538 5.70209 24.355C5.07813 24.1125 4.63284 23.8228 4.1651 23.355C3.69736 22.8873 3.40765 22.442 3.16516 21.818C2.98209 21.347 2.76433 20.6392 2.7049 19.3359C2.64059 17.9264 2.62695 17.5036 2.62695 13.9344C2.62695 10.3652 2.64059 9.94236 2.7049 8.53284C2.76433 7.22954 2.98209 6.52175 3.16516 6.05072C3.40765 5.42677 3.69731 4.98147 4.1651 4.51374C4.63284 4.04594 5.07813 3.75628 5.70209 3.51379C6.17311 3.33073 6.8809 3.11296 8.1842 3.05353C9.59373 2.98922 10.0165 2.97559 13.5858 2.97559ZM6.72168 13.9337C6.72168 10.1426 9.7949 7.06934 13.586 7.06934C17.377 7.06934 20.4503 10.1426 20.4503 13.9337C20.4503 17.7247 17.377 20.7979 13.586 20.7979C9.7949 20.7979 6.72168 17.7247 6.72168 13.9337ZM13.5857 18.3901C11.1248 18.3901 9.12988 16.3952 9.12988 13.9343C9.12988 11.4734 11.1248 9.47852 13.5857 9.47852C16.0465 9.47852 18.0414 11.4734 18.0414 13.9343C18.0414 16.3952 16.0465 18.3901 13.5857 18.3901ZM20.7212 8.40249C21.6072 8.40249 22.3253 7.68436 22.3253 6.79844C22.3253 5.91253 21.6072 5.19434 20.7212 5.19434C19.8354 5.19434 19.1172 5.91253 19.1172 6.79844C19.1172 7.68436 19.8354 8.40249 20.7212 8.40249Z" fill="#243355"/>
</svg>
