<svg width="28" height="20" viewBox="0 0 28 20" fill="none" xmlns="http://www.w3.org/2000/svg">
<path fill-rule="evenodd" clip-rule="evenodd" d="M26.3313 1.46187C27.1325 2.29487 27.394 4.1865 27.394 4.1865C27.394 4.1865 27.6614 6.40841 27.6614 8.62947V10.7124C27.6614 12.9343 27.394 15.1554 27.394 15.1554C27.394 15.1554 27.1325 17.047 26.3313 17.88C25.4153 18.8654 24.3996 18.9672 23.8255 19.0248C23.7624 19.0311 23.7046 19.0369 23.6529 19.0433C19.9117 19.3212 14.2941 19.3298 14.2941 19.3298C14.2941 19.3298 7.34307 19.2646 5.2043 19.0536C5.10296 19.0341 4.98013 19.019 4.84102 19.0019C4.16354 18.9184 3.10021 18.7875 2.25597 17.88C1.45477 17.047 1.1941 15.1554 1.1941 15.1554C1.1941 15.1554 0.926758 12.9343 0.926758 10.7124V8.62947C0.926758 6.40841 1.1941 4.1865 1.1941 4.1865C1.1941 4.1865 1.45477 2.29487 2.25597 1.46187C3.17402 0.475058 4.19067 0.374344 4.76483 0.317466C4.82708 0.311299 4.88412 0.305648 4.93528 0.299438C8.67646 0.0214844 14.2882 0.0214844 14.2882 0.0214844H14.2999C14.2999 0.0214844 19.9117 0.0214844 23.6529 0.299438C23.704 0.305657 23.7611 0.311316 23.8234 0.317494C24.3971 0.374377 25.4142 0.475219 26.3313 1.46187ZM11.5332 5.52344L11.534 13.2366L18.7566 9.39334L11.5332 5.52344Z" fill="#243355"/>
</svg>
