<svg width="31" height="28" viewBox="0 0 31 28" fill="none" xmlns="http://www.w3.org/2000/svg">
<path fill-rule="evenodd" clip-rule="evenodd" d="M7.86803 0.509766H22.7206C23.5375 0.509766 24.2059 1.17813 24.2059 1.99502V4.96554C24.2059 5.78243 23.5375 6.45079 22.7206 6.45079H7.86803C7.05114 6.45079 6.38278 5.78243 6.38278 4.96554V1.99502C6.38278 1.17813 7.05114 0.509766 7.86803 0.509766ZM4.89718 7.93649H25.6908C28.1563 7.93649 30.1465 9.92673 30.1465 12.3923V18.3333C30.1465 19.9671 28.8098 21.3038 27.176 21.3038H24.2055V24.2743C24.2055 25.9081 22.8688 27.2448 21.235 27.2448H9.35295C7.71916 27.2448 6.38243 25.9081 6.38243 24.2743V21.3038H3.41192C1.77814 21.3038 0.441406 19.9671 0.441406 18.3333V12.3923C0.441406 9.92673 2.43165 7.93649 4.89718 7.93649ZM10.8378 24.2739H19.7493C20.5662 24.2739 21.2346 23.6056 21.2346 22.7887V16.8477H9.3525V22.7887C9.3525 23.6056 10.0209 24.2739 10.8378 24.2739ZM25.6913 13.8768C24.8744 13.8768 24.206 13.2084 24.206 12.3915C24.206 11.5746 24.8744 10.9062 25.6913 10.9062C26.5082 10.9062 27.1765 11.5746 27.1765 12.3915C27.1765 13.2084 26.5082 13.8768 25.6913 13.8768Z" fill="#4D4D4D"/>
</svg>
