<svg width="28" height="17" viewBox="0 0 28 17" fill="none" xmlns="http://www.w3.org/2000/svg">
<path fill-rule="evenodd" clip-rule="evenodd" d="M13.5925 10.2891C12.2642 10.2891 9.00193 10.2934 9.00193 10.2934V7.05814H17.1568C17.7248 10.9727 16.0115 16.8447 9.00193 16.8447C4.31235 16.8447 0.510742 13.1873 0.510742 8.67575C0.510742 4.16416 4.31235 0.506836 9.00193 0.506836C11.2024 0.506836 13.2073 1.31208 14.7158 2.63302C13.5469 3.69503 13.1721 4.09987 12.8537 4.44386C12.6881 4.62279 12.5377 4.78525 12.2987 5.01519C11.4261 4.32099 10.4749 3.82293 9.00193 3.82293C6.21606 3.82293 4.04173 5.99562 4.04173 8.67575C4.04173 11.3559 6.21606 13.5286 9.00193 13.5286C11.7548 13.5286 12.8732 12.3865 13.5925 10.2891ZM24.3031 4.38867V7.21948H27.2456V9.24149H24.3031V12.1532H22.2014V9.24149H19.1748V7.21948H22.2014V4.38867H24.3031Z" fill="#243355"/>
</svg>
