<svg width="28" height="24" viewBox="0 0 28 24" fill="none" xmlns="http://www.w3.org/2000/svg">
<path fill-rule="evenodd" clip-rule="evenodd" d="M3.7807 5.65209H3.74298C1.85672 5.65209 0.633789 4.41801 0.633789 2.85372C0.633789 1.259 1.89287 0.0507812 3.81686 0.0507812C5.73927 0.0507812 6.92133 1.25595 6.95905 2.84915C6.95905 4.41344 5.73927 5.65209 3.7807 5.65209ZM27.3682 23.8144H21.4595V15.4603C21.4595 13.2737 20.5352 11.7809 18.5028 11.7809C16.9482 11.7809 16.0836 12.7883 15.6812 13.7591C15.5484 14.0659 15.5508 14.4789 15.5532 14.9045V14.9045C15.5536 14.9623 15.5539 15.0204 15.5539 15.0784V23.8144H9.7002C9.7002 23.8144 9.77565 9.016 9.7002 7.67084H15.5539V10.2044C15.8997 9.09665 17.7703 7.51562 20.7553 7.51562C24.4586 7.51562 27.3682 9.83771 27.3682 14.838V23.8144ZM6.51939 7.67188H1.30859V23.8154H6.51939V7.67188Z" fill="#243355"/>
</svg>
