<svg width="22" height="30" viewBox="0 0 22 30" fill="none" xmlns="http://www.w3.org/2000/svg">
<path fill-rule="evenodd" clip-rule="evenodd" d="M0.494141 11.0111C0.494141 5.26311 5.14299 0.614258 10.8909 0.614258C16.6389 0.614258 21.2877 5.26311 21.2877 11.0111C21.2877 17.2046 14.7229 25.7448 12.0346 28.9975C11.4405 29.7104 10.3562 29.7104 9.76214 28.9975C7.05897 25.7448 0.494141 17.2046 0.494141 11.0111ZM7.17777 11.0111C7.17777 13.0607 8.84126 14.7242 10.8909 14.7242C12.9406 14.7242 14.6041 13.0607 14.6041 11.0111C14.6041 8.96144 12.9406 7.29795 10.8909 7.29795C8.84126 7.29795 7.17777 8.96144 7.17777 11.0111Z" fill="#4D4D4D"/>
</svg>
