<svg width="28" height="28" viewBox="0 0 28 28" fill="none" xmlns="http://www.w3.org/2000/svg">
<path fill-rule="evenodd" clip-rule="evenodd" d="M24.6291 18.7188L20.8566 18.2881C19.9506 18.1841 19.0594 18.496 18.4207 19.1347L15.6879 21.8676C11.4846 19.7288 8.0388 16.2978 5.90003 12.0797L8.64775 9.33199C9.28641 8.69333 9.59832 7.80217 9.49435 6.89616L9.06362 3.15332C8.88539 1.65321 7.62293 0.524414 6.10796 0.524414H3.53847C1.86013 0.524414 0.463988 1.92056 0.567956 3.5989C1.35514 16.283 11.4994 26.4124 24.1687 27.1996C25.847 27.3036 27.2432 25.9074 27.2432 24.2291V21.6596C27.258 20.1595 26.1292 18.897 24.6291 18.7188Z" fill="#4D4D4D"/>
</svg>
