<svg width="28" height="23" viewBox="0 0 28 23" fill="none" xmlns="http://www.w3.org/2000/svg">
<path d="M27.0764 3.17453C26.0941 3.62187 25.0364 3.9244 23.927 4.05957C25.06 3.36441 25.9293 2.26213 26.3389 0.949055C25.2781 1.59272 24.1059 2.06099 22.8537 2.31202C21.8557 1.21939 20.4292 0.537109 18.8506 0.537109C15.8236 0.537109 13.3678 3.05545 13.3678 6.16113C13.3678 6.60204 13.4149 7.03008 13.509 7.44202C8.95048 7.20709 4.90977 4.97035 2.20288 1.56376C1.73055 2.3973 1.46064 3.36441 1.46064 4.39427C1.46064 6.34458 2.42885 8.06638 3.90076 9.07532C3.00318 9.04797 2.1558 8.79211 1.41514 8.37373V8.44292C1.41514 11.1688 3.30603 13.4426 5.81677 13.9575C5.35699 14.0895 4.8721 14.1554 4.37153 14.1554C4.01845 14.1554 3.67323 14.1217 3.33899 14.0557C4.03728 16.2892 6.06157 17.9161 8.46246 17.9595C6.58568 19.4689 4.21931 20.3684 1.65052 20.3684C1.208 20.3684 0.770191 20.3427 0.341797 20.2912C2.76936 21.8843 5.65357 22.816 8.74962 22.816C18.8396 22.816 24.3554 14.2472 24.3554 6.81445C24.3554 6.56986 24.3507 6.32527 24.3413 6.0855C25.4131 5.29218 26.3436 4.30255 27.0764 3.17453Z" fill="#243355"/>
</svg>
