<svg width="28" height="28" viewBox="0 0 28 28" fill="none" xmlns="http://www.w3.org/2000/svg">
<path fill-rule="evenodd" clip-rule="evenodd" d="M24.6296 18.7188L20.857 18.2881C19.951 18.1841 19.0599 18.496 18.4212 19.1347L15.6884 21.8676C11.4851 19.7288 8.03929 16.2978 5.90052 12.0797L8.64824 9.33199C9.2869 8.69333 9.5988 7.80217 9.49484 6.89616L9.06411 3.15332C8.88588 1.65321 7.62341 0.524414 6.10845 0.524414H3.53896C1.86062 0.524414 0.464476 1.92056 0.568444 3.5989C1.35563 16.283 11.4999 26.4124 24.1692 27.1996C25.8475 27.3036 27.2437 25.9074 27.2437 24.2291V21.6596C27.2585 20.1595 26.1297 18.897 24.6296 18.7188Z" fill="#4D4D4D"/>
</svg>
