<svg width="37" height="36" viewBox="0 0 37 36" fill="none" xmlns="http://www.w3.org/2000/svg">
<path d="M19.3294 31.301H6.52511C5.70995 31.301 5.04956 30.6402 5.04956 29.8254V6.04194C5.04956 5.22689 5.71005 4.56641 6.52511 4.56641H30.3087C31.1236 4.56641 31.7842 5.22689 31.7842 6.04194V29.8254C31.7842 30.6403 31.1235 31.301 30.3087 31.301H23.4961V20.9479H26.9711L27.4915 16.9131H23.4961V14.3372C23.4961 13.169 23.8204 12.3729 25.4956 12.3729L27.6321 12.372V8.76324C27.2626 8.71406 25.9943 8.60421 24.5188 8.60421C21.4383 8.60421 19.3294 10.4845 19.3294 13.9376V16.9131H15.8454V20.9479H19.3294V31.301Z" fill="#243355"/>
</svg>
