<svg width="31" height="28" viewBox="0 0 31 28" fill="none" xmlns="http://www.w3.org/2000/svg">
<path fill-rule="evenodd" clip-rule="evenodd" d="M7.86746 0.509766H22.72C23.5369 0.509766 24.2053 1.17813 24.2053 1.99502V4.96554C24.2053 5.78243 23.5369 6.45079 22.72 6.45079H7.86746C7.05057 6.45079 6.3822 5.78243 6.3822 4.96554V1.99502C6.3822 1.17813 7.05057 0.509766 7.86746 0.509766ZM4.89693 7.93628H25.6905C28.156 7.93628 30.1463 9.92653 30.1463 12.3921V18.3331C30.1463 19.9669 28.8096 21.3036 27.1758 21.3036H24.2053V24.2741C24.2053 25.9079 22.8685 27.2446 21.2348 27.2446H9.3527C7.71892 27.2446 6.38219 25.9079 6.38219 24.2741V21.3036H3.41168C1.77789 21.3036 0.441162 19.9669 0.441162 18.3331V12.3921C0.441162 9.92653 2.43141 7.93628 4.89693 7.93628ZM10.838 24.2737H19.7495C20.5664 24.2737 21.2348 23.6054 21.2348 22.7885V16.8475H9.35275V22.7885C9.35275 23.6054 10.0211 24.2737 10.838 24.2737ZM25.6905 13.8766C24.8737 13.8766 24.2053 13.2082 24.2053 12.3913C24.2053 11.5744 24.8737 10.906 25.6905 10.906C26.5074 10.906 27.1758 11.5744 27.1758 12.3913C27.1758 13.2082 26.5074 13.8766 25.6905 13.8766Z" fill="#4D4D4D"/>
</svg>
