<svg width="28" height="17" viewBox="0 0 28 17" fill="none" xmlns="http://www.w3.org/2000/svg">
<path fill-rule="evenodd" clip-rule="evenodd" d="M13.593 10.2891C12.2647 10.2891 9.00241 10.2934 9.00241 10.2934V7.05814H17.1573C17.7253 10.9727 16.012 16.8447 9.00241 16.8447C4.31284 16.8447 0.51123 13.1873 0.51123 8.67575C0.51123 4.16416 4.31284 0.506836 9.00241 0.506836C11.2029 0.506836 13.2078 1.31208 14.7163 2.63302C13.5474 3.69503 13.1726 4.09987 12.8542 4.44386C12.6886 4.62279 12.5382 4.78525 12.2992 5.01519C11.4266 4.32099 10.4753 3.82293 9.00241 3.82293C6.21655 3.82293 4.04222 5.99562 4.04222 8.67575C4.04222 11.3559 6.21655 13.5286 9.00241 13.5286C11.7552 13.5286 12.8737 12.3865 13.593 10.2891ZM24.3034 4.38965V7.22046H27.2459V9.24247H24.3034V12.1542H22.2016V9.24247H19.175V7.22046H22.2016V4.38965H24.3034Z" fill="#243355"/>
</svg>
