<svg width="27" height="28" viewBox="0 0 27 28" fill="none" xmlns="http://www.w3.org/2000/svg">
<path fill-rule="evenodd" clip-rule="evenodd" d="M13.5861 0.566406C9.95572 0.566406 9.5005 0.581794 8.07474 0.646848C6.65194 0.711742 5.68022 0.937732 4.82996 1.2682C3.95095 1.60976 3.20548 2.06683 2.4623 2.80996C1.71917 3.55314 1.2621 4.2986 0.920543 5.17762C0.590075 6.02788 0.364086 6.9996 0.299192 8.42239C0.234138 9.84816 0.21875 10.3034 0.21875 13.9337C0.21875 17.5641 0.234138 18.0193 0.299192 19.445C0.364086 20.8678 0.590075 21.8396 0.920543 22.6898C1.2621 23.5688 1.71917 24.3143 2.4623 25.0575C3.20548 25.8006 3.95095 26.2577 4.82996 26.5993C5.68022 26.9297 6.65194 27.1557 8.07474 27.2206C9.5005 27.2856 9.95572 27.301 13.5861 27.301C17.2164 27.301 17.6716 27.2856 19.0974 27.2206C20.5202 27.1557 21.4919 26.9297 22.3422 26.5993C23.2212 26.2577 23.9666 25.8006 24.7098 25.0575C25.4529 24.3143 25.91 23.5688 26.2516 22.6898C26.582 21.8396 26.808 20.8678 26.8729 19.445C26.938 18.0193 26.9534 17.5641 26.9534 13.9337C26.9534 10.3034 26.938 9.84816 26.8729 8.42239C26.808 6.9996 26.582 6.02788 26.2516 5.17762C25.91 4.2986 25.4529 3.55314 24.7098 2.80996C23.9666 2.06683 23.2212 1.60976 22.3422 1.2682C21.4919 0.937732 20.5202 0.711742 19.0974 0.646848C17.6716 0.581794 17.2164 0.566406 13.5861 0.566406ZM13.586 2.97559C17.1552 2.97559 17.578 2.98922 18.9875 3.05353C20.2908 3.11296 20.9986 3.33073 21.4696 3.51379C22.0936 3.75628 22.5389 4.04594 23.0066 4.51374C23.4744 4.98147 23.7641 5.42677 24.0066 6.05072C24.1896 6.52175 24.4074 7.22954 24.4668 8.53284C24.5311 9.94236 24.5448 10.3652 24.5448 13.9344C24.5448 17.5036 24.5311 17.9264 24.4668 19.3359C24.4074 20.6392 24.1896 21.347 24.0066 21.818C23.7641 22.442 23.4744 22.8873 23.0066 23.355C22.5389 23.8228 22.0936 24.1125 21.4696 24.355C20.9986 24.538 20.2908 24.7558 18.9875 24.8152C17.5782 24.8795 17.1555 24.8932 13.586 24.8932C10.0165 24.8932 9.59382 24.8795 8.18445 24.8152C6.88115 24.7558 6.17336 24.538 5.70233 24.355C5.07838 24.1125 4.63309 23.8228 4.16535 23.355C3.69761 22.8873 3.40789 22.442 3.1654 21.818C2.98234 21.347 2.76457 20.6392 2.70514 19.3359C2.64083 17.9264 2.6272 17.5036 2.6272 13.9344C2.6272 10.3652 2.64083 9.94236 2.70514 8.53284C2.76457 7.22954 2.98234 6.52175 3.1654 6.05072C3.40789 5.42677 3.69756 4.98147 4.16535 4.51374C4.63309 4.04594 5.07838 3.75628 5.70233 3.51379C6.17336 3.33073 6.88115 3.11296 8.18445 3.05353C9.59398 2.98922 10.0168 2.97559 13.586 2.97559ZM6.72192 13.9337C6.72192 10.1426 9.79515 7.06934 13.5862 7.06934C17.3773 7.06934 20.4505 10.1426 20.4505 13.9337C20.4505 17.7247 17.3773 20.7979 13.5862 20.7979C9.79515 20.7979 6.72192 17.7247 6.72192 13.9337ZM13.5862 18.3901C11.1253 18.3901 9.13037 16.3952 9.13037 13.9343C9.13037 11.4734 11.1253 9.47852 13.5862 9.47852C16.047 9.47852 18.0419 11.4734 18.0419 13.9343C18.0419 16.3952 16.047 18.3901 13.5862 18.3901ZM20.7216 8.40232C21.6076 8.40232 22.3258 7.68419 22.3258 6.79827C22.3258 5.91235 21.6076 5.19416 20.7216 5.19416C19.8358 5.19416 19.1176 5.91235 19.1176 6.79827C19.1176 7.68419 19.8358 8.40232 20.7216 8.40232Z" fill="#243355"/>
</svg>
