<svg width="28" height="24" viewBox="0 0 28 24" fill="none" xmlns="http://www.w3.org/2000/svg">
<path fill-rule="evenodd" clip-rule="evenodd" d="M3.78095 5.65209H3.74322C1.85696 5.65209 0.634033 4.41801 0.634033 2.85372C0.634033 1.259 1.89311 0.0507812 3.8171 0.0507812C5.73952 0.0507812 6.92157 1.25595 6.9593 2.84915C6.9593 4.41344 5.73952 5.65209 3.78095 5.65209ZM27.3687 23.8153H21.46V15.4613C21.46 13.2746 20.5357 11.7819 18.5032 11.7819C16.9486 11.7819 16.0841 12.7892 15.6817 13.7601C15.5488 14.0669 15.5512 14.4798 15.5537 14.9055V14.9055C15.554 14.9633 15.5544 15.0213 15.5544 15.0794V23.8153H9.70068C9.70068 23.8153 9.77613 9.01698 9.70068 7.67181H15.5544V10.2054C15.9002 9.09763 17.7707 7.5166 20.7558 7.5166C24.4591 7.5166 27.3687 9.83869 27.3687 14.8389V23.8153ZM6.51932 7.6717H1.30852V23.8152H6.51932V7.6717Z" fill="#243355"/>
</svg>
