<svg width="22" height="30" viewBox="0 0 22 30" fill="none" xmlns="http://www.w3.org/2000/svg">
<path fill-rule="evenodd" clip-rule="evenodd" d="M0.494385 11.0111C0.494385 5.26311 5.14324 0.614258 10.8912 0.614258C16.6391 0.614258 21.288 5.26311 21.288 11.0111C21.288 17.2046 14.7231 25.7448 12.0348 28.9975C11.4407 29.7104 10.3565 29.7104 9.76239 28.9975C7.05922 25.7448 0.494385 17.2046 0.494385 11.0111ZM7.17802 11.0111C7.17802 13.0607 8.8415 14.7242 10.8912 14.7242C12.9408 14.7242 14.6043 13.0607 14.6043 11.0111C14.6043 8.96144 12.9408 7.29795 10.8912 7.29795C8.8415 7.29795 7.17802 8.96144 7.17802 11.0111Z" fill="#4D4D4D"/>
</svg>
