<svg width="18" height="18" viewBox="0 0 18 18" fill="none" xmlns="http://www.w3.org/2000/svg">
<g clip-path="url(#clip0_98_1278)">
<path d="M15.2182 2.55783C11.6871 -0.852609 6.08891 -0.852609 2.55782 2.55783C-0.938259 6.17759 -0.837991 11.9461 2.78177 15.4421C6.31287 18.8526 11.911 18.8526 15.4421 15.4421C18.9382 11.8224 18.8379 6.0539 15.2182 2.55783ZM15.0139 15.0139L15.0108 15.0108C11.6881 18.3306 6.30336 18.3281 2.98366 15.0054C-0.336051 11.6826 -0.333594 6.29793 2.98914 2.97822C6.31187 -0.341485 11.6966 -0.339029 15.0163 2.98367C16.6109 4.57968 17.5059 6.74388 17.5045 8.99998C17.5046 11.2556 16.6087 13.4189 15.0139 15.0139Z" fill="#656565"/>
<path d="M14.1179 11.5939L12.4109 9.89295C12.0235 9.50462 11.3947 9.50388 11.0063 9.89128C11.0058 9.89185 11.0052 9.89238 11.0047 9.89295L10.0266 10.871C9.95265 10.9451 9.83604 10.9554 9.75026 10.8953C9.21497 10.5212 8.71389 10.1004 8.25288 9.63781C7.83999 9.22585 7.46017 8.78207 7.11691 8.31049C7.05469 8.22578 7.06373 8.10832 7.13816 8.03411L8.14047 7.0318C8.52745 6.64407 8.52745 6.01627 8.14047 5.62855L6.43351 3.92159C6.04017 3.54555 5.42059 3.54555 5.02724 3.92159L4.48661 4.46222C3.67013 5.26952 3.37865 6.46824 3.73334 7.56029C3.99802 8.35926 4.37214 9.11769 4.845 9.81397C5.2707 10.4523 5.75908 11.0465 6.30292 11.5878C6.89416 12.1833 7.54908 12.7119 8.2559 13.1641C9.03291 13.6712 9.88605 14.0506 10.7829 14.2879C11.0135 14.3448 11.2501 14.3733 11.4876 14.373C12.3016 14.368 13.0805 14.0403 13.6532 13.4618L14.1179 12.9971C14.5049 12.6094 14.5049 11.9816 14.1179 11.5939ZM13.6878 12.5828C13.6874 12.5832 13.687 12.5836 13.6866 12.584L13.6896 12.5749L13.2249 13.0396C12.6278 13.6443 11.7582 13.893 10.9317 13.6957C10.099 13.4728 9.30737 13.118 8.58689 12.6448C7.91751 12.217 7.29719 11.7169 6.73716 11.1535C6.22187 10.6419 5.75894 10.0803 5.35517 9.47686C4.91352 8.82756 4.56396 8.12025 4.3164 7.37502C4.03262 6.49956 4.26778 5.53893 4.92388 4.89355L5.46451 4.35291C5.61482 4.20193 5.85907 4.20139 6.01002 4.3517C6.01041 4.3521 6.01084 4.35249 6.01123 4.35291L7.71819 6.05988C7.86918 6.21019 7.86971 6.45443 7.7194 6.60538C7.71901 6.60578 7.71862 6.60617 7.71819 6.60659L6.71587 7.60891C6.42828 7.89337 6.39211 8.34541 6.63084 8.67198C6.99336 9.16951 7.39454 9.63767 7.83059 10.0722C8.31677 10.5605 8.8453 11.0046 9.40999 11.3995C9.73628 11.6271 10.1786 11.5887 10.4609 11.3084L11.4298 10.3243C11.5801 10.1733 11.8243 10.1728 11.9753 10.3231C11.9757 10.3235 11.9761 10.3239 11.9765 10.3243L13.6865 12.0374C13.8375 12.1876 13.8381 12.4318 13.6878 12.5828Z" fill="#656565"/>
</g>
<defs>
<clipPath id="clip0_98_1278">
<rect width="18" height="18" fill="white"/>
</clipPath>
</defs>
</svg>
