<svg width="18" height="18" viewBox="0 0 18 18" fill="none" xmlns="http://www.w3.org/2000/svg">
<path d="M9 0C4.03719 0 0 4.03719 0 9C0 10.693 0.470423 12.3366 1.36281 13.7638C1.00731 15.0092 0.365192 17.3652 0.358269 17.3897C0.325038 17.5116 0.360692 17.6417 0.451731 17.7293C0.542769 17.8169 0.674308 17.848 0.794077 17.8113L4.36154 16.714C5.75896 17.5559 7.35923 18 9 18C13.9628 18 18 13.9628 18 9C18 4.03719 13.9628 0 9 0ZM9 17.3077C7.43573 17.3077 5.91196 16.8705 4.59312 16.0439C4.53738 16.0089 4.47335 15.9913 4.40931 15.9913C4.37504 15.9913 4.34077 15.9965 4.30754 16.0065L1.1925 16.9653C1.42131 16.1301 1.83254 14.6361 2.07104 13.805C2.09873 13.7087 2.08315 13.6049 2.02881 13.5208C1.15442 12.1753 0.692308 10.612 0.692308 9C0.692308 4.41935 4.41935 0.692308 9 0.692308C13.5807 0.692308 17.3077 4.41935 17.3077 9C17.3077 13.5807 13.5807 17.3077 9 17.3077Z" fill="#656565"/>
<path d="M14.8794 11.1205C14.2404 10.7657 13.6963 10.4099 13.2992 10.1503C12.996 9.95227 12.7769 9.80931 12.6163 9.72866C12.1673 9.5047 11.8271 9.66289 11.6976 9.79374C11.6813 9.81 11.6668 9.82766 11.6543 9.84635C11.1881 10.5459 10.5792 11.215 10.4009 11.251C10.1949 11.2189 9.2309 10.6709 8.27275 9.873C7.29451 9.05781 6.67905 8.27723 6.58871 7.74554C7.21628 7.09962 7.44232 6.69323 7.44232 6.23077C7.44232 5.75412 6.33048 3.76408 6.12936 3.56297C5.92755 3.3615 5.47305 3.33 4.77832 3.46847C4.71151 3.48197 4.6499 3.51485 4.60144 3.56297C4.51732 3.64708 2.54909 5.65373 3.4844 8.08581C4.51109 10.755 7.14636 13.8576 10.5061 14.3616C10.8879 14.4187 11.2459 14.4471 11.5809 14.4471C13.5575 14.4471 14.724 13.4526 15.0525 11.4799C15.0771 11.3355 15.0075 11.1915 14.8794 11.1205ZM10.6089 13.6769C7.05602 13.1442 4.81813 9.62412 4.13067 7.83727C3.44874 6.06497 4.70632 4.48477 5.02201 4.12754C5.27886 4.08393 5.54921 4.06558 5.66205 4.08323C5.89778 4.41104 6.71401 5.95316 6.75001 6.23077C6.75001 6.4125 6.69082 6.66554 5.98605 7.37066C5.92098 7.43539 5.88463 7.52331 5.88463 7.61539C5.88463 9.42785 9.70755 11.9423 10.3846 11.9423C10.9734 11.9423 11.7412 10.9527 12.1784 10.3078C12.2037 10.3088 12.2462 10.3175 12.3068 10.3479C12.4314 10.4106 12.6474 10.5515 12.9206 10.7301C13.2812 10.9658 13.7603 11.2787 14.3259 11.6031C14.0691 12.8389 13.3512 14.0888 10.6089 13.6769Z" fill="#656565"/>
</svg>
