<svg width="28" height="20" viewBox="0 0 28 20" fill="none" xmlns="http://www.w3.org/2000/svg">
<path fill-rule="evenodd" clip-rule="evenodd" d="M26.3308 1.46187C27.132 2.29487 27.3935 4.1865 27.3935 4.1865C27.3935 4.1865 27.6609 6.40841 27.6609 8.62947V10.7124C27.6609 12.9343 27.3935 15.1554 27.3935 15.1554C27.3935 15.1554 27.132 17.047 26.3308 17.88C25.4148 18.8654 24.3992 18.9672 23.825 19.0248C23.7619 19.0311 23.7041 19.0369 23.6524 19.0433C19.9112 19.3212 14.2936 19.3298 14.2936 19.3298C14.2936 19.3298 7.34258 19.2646 5.20381 19.0536C5.10248 19.0341 4.97964 19.019 4.84053 19.0019C4.16306 18.9184 3.09972 18.7875 2.25548 17.88C1.45428 17.047 1.19362 15.1554 1.19362 15.1554C1.19362 15.1554 0.92627 12.9343 0.92627 10.7124V8.62947C0.92627 6.40841 1.19362 4.1865 1.19362 4.1865C1.19362 4.1865 1.45428 2.29487 2.25548 1.46187C3.17353 0.475058 4.19019 0.374344 4.76434 0.317466C4.82659 0.311299 4.88363 0.305648 4.93479 0.299438C8.67597 0.0214844 14.2877 0.0214844 14.2877 0.0214844H14.2994C14.2994 0.0214844 19.9112 0.0214844 23.6524 0.299438C23.7035 0.305657 23.7606 0.311316 23.8229 0.317494C24.3966 0.374377 25.4137 0.475219 26.3308 1.46187ZM11.5325 5.52344L11.5333 13.2366L18.7558 9.39334L11.5325 5.52344Z" fill="#243355"/>
</svg>
